<svg xmlns="http://www.w3.org/2000/svg" width="1000" height="400" viewBox="0 0 1000 400" font-family="'PingFang SC','Microsoft YaHei',sans-serif">
  <defs>
    <linearGradient id="sky" x1="0" y1="0" x2="0" y2="1">
      <stop offset="0%" stop-color="#120e26"/>
      <stop offset="55%" stop-color="#1b1538"/>
      <stop offset="100%" stop-color="#2b2049"/>
    </linearGradient>
    <linearGradient id="aur1" x1="0%" y1="0%" x2="100%" y2="0%">
      <stop offset="0%" stop-color="#F9A8D4" stop-opacity="0"/>
      <stop offset="35%" stop-color="#F9A8D4" stop-opacity="0.8"/>
      <stop offset="70%" stop-color="#C4B5FD" stop-opacity="0.6"/>
      <stop offset="100%" stop-color="#C4B5FD" stop-opacity="0"/>
    </linearGradient>
    <linearGradient id="aur2" x1="0%" y1="0%" x2="100%" y2="0%">
      <stop offset="0%" stop-color="#A7F3D0" stop-opacity="0"/>
      <stop offset="40%" stop-color="#A7F3D0" stop-opacity="0.55"/>
      <stop offset="80%" stop-color="#BAE6FD" stop-opacity="0.5"/>
      <stop offset="100%" stop-color="#BAE6FD" stop-opacity="0"/>
    </linearGradient>
    <linearGradient id="title" x1="0%" y1="0%" x2="100%" y2="0%">
      <stop offset="0%" stop-color="#FFE1F0"/>
      <stop offset="48%" stop-color="#E9D5FF"/>
      <stop offset="100%" stop-color="#C7EBFF"/>
    </linearGradient>
    <radialGradient id="moonhalo">
      <stop offset="0%" stop-color="#FFF7ED" stop-opacity="0.9"/>
      <stop offset="45%" stop-color="#FDE68A" stop-opacity="0.22"/>
      <stop offset="100%" stop-color="#FDE68A" stop-opacity="0"/>
    </radialGradient>
    <radialGradient id="titleglow">
      <stop offset="0%" stop-color="#E9D5FF" stop-opacity="0.28"/>
      <stop offset="100%" stop-color="#E9D5FF" stop-opacity="0"/>
    </radialGradient>
    <filter id="soft" x="-40%" y="-40%" width="180%" height="180%"><feGaussianBlur stdDeviation="11"/></filter>
    <filter id="glow2" x="-40%" y="-40%" width="180%" height="180%">
      <feGaussianBlur stdDeviation="6" result="b"/><feMerge><feMergeNode in="b"/><feMergeNode in="SourceGraphic"/></feMerge>
    </filter>
  </defs>

  <rect width="1000" height="400" fill="url(#sky)"/>

  <g fill="#FFF7ED">
    <circle cx="88" cy="62" r="1.6"><animate attributeName="opacity" values="0.15;1;0.15" dur="3.4s" repeatCount="indefinite"/></circle>
    <circle cx="186" cy="104" r="1.2"><animate attributeName="opacity" values="0.9;0.2;0.9" dur="4.2s" begin="0.4s" repeatCount="indefinite"/></circle>
    <circle cx="268" cy="52" r="1.8"><animate attributeName="opacity" values="0.2;1;0.2" dur="3.8s" begin="0.8s" repeatCount="indefinite"/></circle>
    <circle cx="352" cy="128" r="1.1"><animate attributeName="opacity" values="1;0.15;1" dur="5s" begin="0.2s" repeatCount="indefinite"/></circle>
    <circle cx="446" cy="58" r="1.5"><animate attributeName="opacity" values="0.25;1;0.25" dur="4.6s" begin="1.1s" repeatCount="indefinite"/></circle>
    <circle cx="530" cy="112" r="1.3"><animate attributeName="opacity" values="0.9;0.25;0.9" dur="3.6s" begin="0.6s" repeatCount="indefinite"/></circle>
    <circle cx="614" cy="46" r="1.7"><animate attributeName="opacity" values="0.2;0.95;0.2" dur="4.4s" begin="1.4s" repeatCount="indefinite"/></circle>
    <circle cx="700" cy="122" r="1.2"><animate attributeName="opacity" values="1;0.2;1" dur="3.9s" begin="0.3s" repeatCount="indefinite"/></circle>
    <circle cx="772" cy="60" r="1.4"><animate attributeName="opacity" values="0.3;1;0.3" dur="4.8s" begin="0.9s" repeatCount="indefinite"/></circle>
    <circle cx="920" cy="112" r="1.6"><animate attributeName="opacity" values="0.2;1;0.2" dur="4.1s" begin="1.6s" repeatCount="indefinite"/></circle>
    <circle cx="60" cy="176" r="1.3"><animate attributeName="opacity" values="0.85;0.2;0.85" dur="5.2s" begin="0.7s" repeatCount="indefinite"/></circle>
    <circle cx="946" cy="196" r="1.2"><animate attributeName="opacity" values="0.2;0.9;0.2" dur="4.7s" begin="1.9s" repeatCount="indefinite"/></circle>
    <circle cx="140" cy="248" r="1.1"><animate attributeName="opacity" values="0.9;0.2;0.9" dur="5.4s" begin="1.2s" repeatCount="indefinite"/></circle>
    <circle cx="866" cy="292" r="1.4"><animate attributeName="opacity" values="0.25;1;0.25" dur="4.3s" begin="2.1s" repeatCount="indefinite"/></circle>
  </g>

  <circle cx="836" cy="84" r="96" fill="url(#moonhalo)"/>
  <circle cx="836" cy="84" r="29" fill="#FFF7ED" opacity="0.95"/>
  <circle cx="847" cy="76" r="4.5" fill="#FDE68A" opacity="0.45"/>
  <circle cx="827" cy="94" r="3.5" fill="#FDE68A" opacity="0.35"/>

  <g filter="url(#soft)">
    <path d="M-140 206 C 110 148, 320 252, 520 194 C 720 136, 880 226, 1140 166 L1140 268 C 880 328, 720 238, 520 296 C 320 354, 110 250, -140 308 Z" fill="url(#aur1)">
      <animateTransform attributeName="transform" type="translate" values="0 0; 44 -16; 0 0" dur="15s" repeatCount="indefinite"/>
      <animate attributeName="opacity" values="0.5;0.9;0.5" dur="11s" repeatCount="indefinite"/>
    </path>
    <path d="M-140 268 C 150 218, 340 316, 560 256 C 780 196, 900 286, 1140 236 L1140 330 C 900 380, 780 290, 560 350 C 340 410, 150 312, -140 362 Z" fill="url(#aur2)">
      <animateTransform attributeName="transform" type="translate" values="0 0; -54 14; 0 0" dur="19s" repeatCount="indefinite"/>
      <animate attributeName="opacity" values="0.35;0.7;0.35" dur="13s" repeatCount="indefinite"/>
    </path>
  </g>

  <ellipse cx="500" cy="150" rx="330" ry="86" fill="url(#titleglow)"/>

  <text x="500" y="152" text-anchor="middle" font-size="62" font-weight="700" fill="url(#title)" letter-spacing="14" filter="url(#glow2)">
    单走一个6
    <animate attributeName="opacity" values="0.9;1;0.9" dur="6.5s" repeatCount="indefinite"/>
  </text>
  <text x="500" y="192" text-anchor="middle" font-size="14" fill="#E9D5FF" opacity="0.85" letter-spacing="6">一个人，一条路，也可以走得很美</text>
  <text x="500" y="220" text-anchor="middle" font-family="Consolas,Menlo,monospace" font-size="12" fill="#A99BD6" opacity="0.9" letter-spacing="4">L0NE-6 &#183; SOLO BUT WARM</text>

  <g>
    <g opacity="0">
      <animateTransform attributeName="transform" type="translate" values="96,-50; 138,450" dur="14s" begin="0s" repeatCount="indefinite"/>
      <animate attributeName="opacity" values="0;0.85;0.85;0" keyTimes="0;0.12;0.78;1" dur="14s" begin="0s" repeatCount="indefinite"/>
      <g><animateTransform attributeName="transform" type="rotate" values="0;320" dur="8s" repeatCount="indefinite"/><path d="M0 0 C 6 -7 14 -5 14 3 C 14 11 6 13 0 7 C -3 5 -3 2 0 0 Z" fill="#FBCFE8" transform="scale(0.9)"/></g>
    </g>
    <g opacity="0">
      <animateTransform attributeName="transform" type="translate" values="248,-60; 208,455" dur="17s" begin="2.5s" repeatCount="indefinite"/>
      <animate attributeName="opacity" values="0;0.8;0.8;0" keyTimes="0;0.12;0.78;1" dur="17s" begin="2.5s" repeatCount="indefinite"/>
      <g><animateTransform attributeName="transform" type="rotate" values="0;-300" dur="10s" repeatCount="indefinite"/><path d="M0 0 C 6 -7 14 -5 14 3 C 14 11 6 13 0 7 C -3 5 -3 2 0 0 Z" fill="#F9A8D4" transform="scale(0.75)"/></g>
    </g>
    <g opacity="0">
      <animateTransform attributeName="transform" type="translate" values="404,-40; 452,450" dur="16s" begin="5s" repeatCount="indefinite"/>
      <animate attributeName="opacity" values="0;0.75;0.75;0" keyTimes="0;0.12;0.78;1" dur="16s" begin="5s" repeatCount="indefinite"/>
      <g><animateTransform attributeName="transform" type="rotate" values="0;280" dur="9s" repeatCount="indefinite"/><path d="M0 0 C 6 -7 14 -5 14 3 C 14 11 6 13 0 7 C -3 5 -3 2 0 0 Z" fill="#E9D5FF" transform="scale(0.85)"/></g>
    </g>
    <g opacity="0">
      <animateTransform attributeName="transform" type="translate" values="556,-70; 516,460" dur="18s" begin="7.5s" repeatCount="indefinite"/>
      <animate attributeName="opacity" values="0;0.8;0.8;0" keyTimes="0;0.12;0.78;1" dur="18s" begin="7.5s" repeatCount="indefinite"/>
      <g><animateTransform attributeName="transform" type="rotate" values="0;-340" dur="11s" repeatCount="indefinite"/><path d="M0 0 C 6 -7 14 -5 14 3 C 14 11 6 13 0 7 C -3 5 -3 2 0 0 Z" fill="#FBCFE8" transform="scale(0.7)"/></g>
    </g>
    <g opacity="0">
      <animateTransform attributeName="transform" type="translate" values="700,-50; 742,455" dur="15s" begin="10s" repeatCount="indefinite"/>
      <animate attributeName="opacity" values="0;0.85;0.85;0" keyTimes="0;0.12;0.78;1" dur="15s" begin="10s" repeatCount="indefinite"/>
      <g><animateTransform attributeName="transform" type="rotate" values="0;300" dur="8.5s" repeatCount="indefinite"/><path d="M0 0 C 6 -7 14 -5 14 3 C 14 11 6 13 0 7 C -3 5 -3 2 0 0 Z" fill="#F9A8D4" transform="scale(0.9)"/></g>
    </g>
    <g opacity="0">
      <animateTransform attributeName="transform" type="translate" values="872,-60; 830,450" dur="16.5s" begin="12.5s" repeatCount="indefinite"/>
      <animate attributeName="opacity" values="0;0.75;0.75;0" keyTimes="0;0.12;0.78;1" dur="16.5s" begin="12.5s" repeatCount="indefinite"/>
      <g><animateTransform attributeName="transform" type="rotate" values="0;-290" dur="9.5s" repeatCount="indefinite"/><path d="M0 0 C 6 -7 14 -5 14 3 C 14 11 6 13 0 7 C -3 5 -3 2 0 0 Z" fill="#E9D5FF" transform="scale(0.8)"/></g>
    </g>
  </g>
</svg>